<svg xmlns="http://www.w3.org/2000/svg" xmlns:xlink="http://www.w3.org/1999/xlink" width="48px"
  height="48px" viewBox="0 0 48 48" version="1.1">
  <g id="surface1">
    <path
      style="stroke:none;fill-rule:nonzero;fill:rgb(19.607843%,11.372549%,27.843137%);fill-opacity:1"
      d="M 47.796875 23.949219 C 47.796875 37.085938 37.148438 47.746094 24 47.746094 C 10.851562 47.746094 0.203125 37.09375 0.203125 23.949219 C 0.203125 10.800781 10.859375 0.15625 24 0.15625 C 37.140625 0.15625 47.796875 10.808594 47.796875 23.949219 Z M 47.796875 23.949219 "></path>
    <path style="stroke:none;fill-rule:nonzero;fill:rgb(100%,100%,100%);fill-opacity:1"
      d="M 33.316406 29.429688 L 28.246094 29.429688 L 27.292969 27.105469 L 20.859375 27.105469 L 19.90625 29.429688 L 14.835938 29.429688 L 20.902344 15.609375 L 27.238281 15.609375 Z M 24.082031 19.199219 L 22.402344 23.324219 L 25.753906 23.324219 Z M 24.082031 19.199219 "></path>
    <path style="stroke:none;fill-rule:nonzero;fill:rgb(90.196078%,0%,47.843137%);fill-opacity:1"
      d="M 27.59375 9.15625 C 27.59375 11.101562 26.019531 12.675781 24.074219 12.675781 C 22.132812 12.675781 20.558594 11.101562 20.558594 9.15625 C 20.558594 7.214844 22.132812 5.640625 24.074219 5.640625 C 26.019531 5.640625 27.59375 7.214844 27.59375 9.15625 Z M 27.59375 9.15625 "></path>
    <path style="stroke:none;fill-rule:nonzero;fill:rgb(90.196078%,0%,47.843137%);fill-opacity:1"
      d="M 27.59375 38.78125 C 27.59375 40.726562 26.019531 42.300781 24.074219 42.300781 C 22.132812 42.300781 20.558594 40.726562 20.558594 38.78125 C 20.558594 36.839844 22.132812 35.265625 24.074219 35.265625 C 26.019531 35.265625 27.59375 36.839844 27.59375 38.78125 Z M 27.59375 38.78125 "></path>
    <path style="stroke:none;fill-rule:nonzero;fill:rgb(90.196078%,0%,47.843137%);fill-opacity:1"
      d="M 14.601562 16.199219 C 14.601562 18.144531 13.027344 19.71875 11.085938 19.71875 C 9.140625 19.71875 7.566406 18.144531 7.566406 16.199219 C 7.566406 14.257812 9.140625 12.683594 11.085938 12.683594 C 13.027344 12.683594 14.601562 14.257812 14.601562 16.199219 Z M 14.601562 16.199219 "></path>
    <path style="stroke:none;fill-rule:nonzero;fill:rgb(90.196078%,0%,47.843137%);fill-opacity:1"
      d="M 40.589844 16.199219 C 40.589844 18.144531 39.015625 19.71875 37.074219 19.71875 C 35.128906 19.71875 33.554688 18.144531 33.554688 16.199219 C 33.554688 14.257812 35.128906 12.683594 37.074219 12.683594 C 39.015625 12.683594 40.589844 14.257812 40.589844 16.199219 Z M 40.589844 16.199219 "></path>
    <path style="stroke:none;fill-rule:nonzero;fill:rgb(90.196078%,0%,47.843137%);fill-opacity:1"
      d="M 14.601562 31.859375 C 14.601562 33.800781 13.027344 35.378906 11.085938 35.378906 C 9.140625 35.378906 7.566406 33.800781 7.566406 31.859375 C 7.566406 29.917969 9.140625 28.34375 11.085938 28.34375 C 13.027344 28.34375 14.601562 29.917969 14.601562 31.859375 Z M 14.601562 31.859375 "></path>
    <path style="stroke:none;fill-rule:nonzero;fill:rgb(90.196078%,0%,47.843137%);fill-opacity:1"
      d="M 40.589844 31.859375 C 40.589844 33.800781 39.015625 35.378906 37.074219 35.378906 C 35.128906 35.378906 33.554688 33.800781 33.554688 31.859375 C 33.554688 29.917969 35.128906 28.34375 37.074219 28.34375 C 39.015625 28.34375 40.589844 29.917969 40.589844 31.859375 Z M 40.589844 31.859375 "></path>
  </g>
</svg>