<svg width="385" height="50" viewBox="0 0 385 50" fill="none" xmlns="http://www.w3.org/2000/svg">
  <path
    d="M104.598 30.16C103.915 30.16 103.27 30.0587 102.662 29.856C102.065 29.6427 101.542 29.3493 101.094 28.976C100.646 28.6027 100.315 28.1653 100.102 27.664C99.9955 27.4613 99.9901 27.2747 100.086 27.104C100.193 26.9333 100.363 26.8213 100.598 26.768C100.779 26.7253 100.955 26.752 101.126 26.848C101.297 26.9333 101.425 27.0667 101.51 27.248C101.649 27.536 101.867 27.7973 102.166 28.032C102.465 28.256 102.822 28.4373 103.238 28.576C103.665 28.7147 104.118 28.784 104.598 28.784C105.131 28.784 105.611 28.6987 106.038 28.528C106.475 28.3573 106.822 28.112 107.078 27.792C107.345 27.4613 107.478 27.0613 107.478 26.592C107.478 25.9947 107.249 25.4667 106.79 25.008C106.331 24.5493 105.595 24.2613 104.582 24.144C103.291 24.0053 102.278 23.616 101.542 22.976C100.806 22.336 100.438 21.5467 100.438 20.608C100.438 19.9253 100.625 19.344 100.998 18.864C101.371 18.3733 101.883 18 102.534 17.744C103.185 17.488 103.921 17.36 104.742 17.36C105.361 17.36 105.91 17.4507 106.39 17.632C106.881 17.8133 107.302 18.064 107.654 18.384C108.017 18.6933 108.326 19.0507 108.582 19.456C108.71 19.6693 108.758 19.872 108.726 20.064C108.705 20.2453 108.609 20.3893 108.438 20.496C108.246 20.6027 108.043 20.624 107.83 20.56C107.627 20.496 107.473 20.3733 107.366 20.192C107.206 19.904 107.003 19.6533 106.758 19.44C106.513 19.2267 106.219 19.056 105.878 18.928C105.547 18.8 105.153 18.736 104.694 18.736C103.883 18.7253 103.217 18.8853 102.694 19.216C102.171 19.536 101.91 20.0213 101.91 20.672C101.91 21.0133 101.995 21.3333 102.166 21.632C102.347 21.92 102.657 22.176 103.094 22.4C103.542 22.6133 104.166 22.768 104.966 22.864C106.257 23.0133 107.243 23.408 107.926 24.048C108.609 24.6773 108.95 25.5093 108.95 26.544C108.95 27.1413 108.833 27.664 108.598 28.112C108.374 28.56 108.059 28.9387 107.654 29.248C107.249 29.5467 106.779 29.776 106.246 29.936C105.723 30.0853 105.174 30.16 104.598 30.16ZM115.426 30.064C114.541 30.064 113.757 29.8773 113.074 29.504C112.402 29.12 111.874 28.5973 111.49 27.936C111.106 27.264 110.914 26.496 110.914 25.632C110.914 24.7573 111.095 23.9893 111.458 23.328C111.821 22.656 112.322 22.1333 112.962 21.76C113.602 21.376 114.343 21.184 115.186 21.184C116.007 21.184 116.717 21.3707 117.314 21.744C117.911 22.1067 118.37 22.6133 118.69 23.264C119.01 23.904 119.17 24.6453 119.17 25.488C119.17 25.6693 119.106 25.824 118.978 25.952C118.861 26.0693 118.701 26.128 118.498 26.128H111.922V24.944H118.514L117.858 25.408C117.847 24.8427 117.735 24.336 117.522 23.888C117.309 23.44 117.005 23.088 116.61 22.832C116.215 22.576 115.741 22.448 115.186 22.448C114.578 22.448 114.05 22.5867 113.602 22.864C113.165 23.1413 112.829 23.52 112.594 24C112.359 24.48 112.242 25.024 112.242 25.632C112.242 26.24 112.375 26.784 112.642 27.264C112.919 27.7333 113.293 28.1067 113.762 28.384C114.242 28.6613 114.797 28.8 115.426 28.8C115.767 28.8 116.119 28.736 116.482 28.608C116.855 28.48 117.149 28.3307 117.362 28.16C117.511 28.0427 117.671 27.984 117.842 27.984C118.013 27.9733 118.162 28.0213 118.29 28.128C118.45 28.2773 118.535 28.4427 118.546 28.624C118.557 28.7947 118.482 28.944 118.322 29.072C117.959 29.36 117.506 29.6 116.962 29.792C116.429 29.9733 115.917 30.064 115.426 30.064ZM124.876 30.064C124.033 30.064 123.281 29.872 122.62 29.488C121.959 29.0933 121.436 28.5653 121.052 27.904C120.679 27.232 120.492 26.4747 120.492 25.632C120.492 24.768 120.673 24 121.036 23.328C121.409 22.656 121.916 22.1333 122.556 21.76C123.196 21.376 123.937 21.184 124.78 21.184C125.409 21.184 125.991 21.3067 126.524 21.552C127.057 21.7973 127.532 22.1653 127.948 22.656C128.087 22.8053 128.135 22.9653 128.092 23.136C128.06 23.3067 127.953 23.456 127.772 23.584C127.644 23.68 127.495 23.712 127.324 23.68C127.153 23.648 127.004 23.5573 126.876 23.408C126.311 22.8 125.612 22.496 124.78 22.496C124.215 22.496 123.713 22.6293 123.276 22.896C122.849 23.1627 122.513 23.5307 122.268 24C122.033 24.4587 121.916 25.0027 121.916 25.632C121.916 26.2293 122.039 26.7627 122.284 27.232C122.54 27.7013 122.892 28.0747 123.34 28.352C123.788 28.6187 124.3 28.752 124.876 28.752C125.271 28.752 125.623 28.704 125.932 28.608C126.241 28.512 126.519 28.3573 126.764 28.144C126.913 28.016 127.068 27.9467 127.228 27.936C127.399 27.9253 127.548 27.9733 127.676 28.08C127.836 28.2187 127.927 28.3733 127.948 28.544C127.969 28.7147 127.911 28.864 127.772 28.992C127.004 29.7067 126.039 30.064 124.876 30.064ZM134.246 30.08C133.499 30.08 132.833 29.9253 132.246 29.616C131.659 29.296 131.195 28.832 130.854 28.224C130.513 27.616 130.342 26.8747 130.342 26V21.968C130.342 21.7653 130.411 21.5947 130.55 21.456C130.699 21.3067 130.875 21.232 131.078 21.232C131.291 21.232 131.467 21.3067 131.606 21.456C131.755 21.5947 131.83 21.7653 131.83 21.968V26C131.83 26.6187 131.947 27.1307 132.182 27.536C132.417 27.9413 132.731 28.2453 133.126 28.448C133.531 28.64 133.985 28.736 134.486 28.736C134.977 28.736 135.409 28.64 135.782 28.448C136.166 28.256 136.47 28 136.694 27.68C136.929 27.3493 137.046 26.9813 137.046 26.576H138.006C137.985 27.2373 137.809 27.8347 137.478 28.368C137.158 28.9013 136.715 29.3227 136.15 29.632C135.585 29.9307 134.95 30.08 134.246 30.08ZM137.782 30C137.569 30 137.393 29.9307 137.254 29.792C137.115 29.6533 137.046 29.4773 137.046 29.264V21.968C137.046 21.7547 137.115 21.5787 137.254 21.44C137.393 21.3013 137.569 21.232 137.782 21.232C137.995 21.232 138.171 21.3013 138.31 21.44C138.449 21.5787 138.518 21.7547 138.518 21.968V29.264C138.518 29.4773 138.449 29.6533 138.31 29.792C138.171 29.9307 137.995 30 137.782 30ZM142.065 24.56C142.086 23.9093 142.252 23.328 142.561 22.816C142.881 22.304 143.302 21.8987 143.825 21.6C144.348 21.3013 144.924 21.152 145.553 21.152C146.14 21.152 146.577 21.2427 146.865 21.424C147.164 21.6053 147.276 21.8347 147.201 22.112C147.169 22.272 147.105 22.3893 147.009 22.464C146.913 22.528 146.801 22.5653 146.673 22.576C146.545 22.576 146.406 22.5653 146.257 22.544C145.606 22.4373 145.025 22.4533 144.513 22.592C144.001 22.7307 143.596 22.9707 143.297 23.312C142.998 23.6533 142.849 24.0693 142.849 24.56H142.065ZM142.113 30C141.889 30 141.713 29.9413 141.585 29.824C141.457 29.696 141.393 29.5147 141.393 29.28V21.968C141.393 21.744 141.457 21.568 141.585 21.44C141.713 21.312 141.889 21.248 142.113 21.248C142.358 21.248 142.54 21.312 142.657 21.44C142.785 21.5573 142.849 21.7333 142.849 21.968V29.28C142.849 29.504 142.785 29.68 142.657 29.808C142.54 29.936 142.358 30 142.113 30ZM152.41 30.064C151.525 30.064 150.741 29.8773 150.058 29.504C149.386 29.12 148.858 28.5973 148.474 27.936C148.09 27.264 147.898 26.496 147.898 25.632C147.898 24.7573 148.08 23.9893 148.442 23.328C148.805 22.656 149.306 22.1333 149.946 21.76C150.586 21.376 151.328 21.184 152.17 21.184C152.992 21.184 153.701 21.3707 154.298 21.744C154.896 22.1067 155.354 22.6133 155.674 23.264C155.994 23.904 156.154 24.6453 156.154 25.488C156.154 25.6693 156.09 25.824 155.962 25.952C155.845 26.0693 155.685 26.128 155.482 26.128H148.906V24.944H155.498L154.842 25.408C154.832 24.8427 154.72 24.336 154.506 23.888C154.293 23.44 153.989 23.088 153.594 22.832C153.2 22.576 152.725 22.448 152.17 22.448C151.562 22.448 151.034 22.5867 150.586 22.864C150.149 23.1413 149.813 23.52 149.578 24C149.344 24.48 149.226 25.024 149.226 25.632C149.226 26.24 149.36 26.784 149.626 27.264C149.904 27.7333 150.277 28.1067 150.746 28.384C151.226 28.6613 151.781 28.8 152.41 28.8C152.752 28.8 153.104 28.736 153.466 28.608C153.84 28.48 154.133 28.3307 154.346 28.16C154.496 28.0427 154.656 27.984 154.826 27.984C154.997 27.9733 155.146 28.0213 155.274 28.128C155.434 28.2773 155.52 28.4427 155.53 28.624C155.541 28.7947 155.466 28.944 155.306 29.072C154.944 29.36 154.49 29.6 153.946 29.792C153.413 29.9733 152.901 30.064 152.41 30.064ZM161.892 30.064C161.06 30.064 160.308 29.872 159.636 29.488C158.975 29.0933 158.447 28.56 158.052 27.888C157.668 27.216 157.476 26.4587 157.476 25.616C157.476 24.7733 157.658 24.0213 158.02 23.36C158.383 22.688 158.879 22.16 159.508 21.776C160.138 21.3813 160.852 21.184 161.652 21.184C162.314 21.184 162.916 21.3227 163.46 21.6C164.015 21.8773 164.474 22.2507 164.836 22.72V18.24C164.836 18.016 164.906 17.84 165.044 17.712C165.183 17.5733 165.359 17.504 165.572 17.504C165.796 17.504 165.978 17.5733 166.116 17.712C166.255 17.84 166.324 18.016 166.324 18.24V25.648C166.314 26.48 166.111 27.232 165.716 27.904C165.332 28.576 164.804 29.104 164.132 29.488C163.471 29.872 162.724 30.064 161.892 30.064ZM161.892 28.752C162.468 28.752 162.98 28.6187 163.428 28.352C163.876 28.0747 164.228 27.7013 164.484 27.232C164.751 26.752 164.884 26.2133 164.884 25.616C164.884 25.0187 164.751 24.4853 164.484 24.016C164.228 23.5467 163.876 23.1787 163.428 22.912C162.98 22.6347 162.468 22.496 161.892 22.496C161.338 22.496 160.831 22.6347 160.372 22.912C159.914 23.1787 159.551 23.5467 159.284 24.016C159.028 24.4853 158.9 25.0187 158.9 25.616C158.9 26.2133 159.028 26.752 159.284 27.232C159.551 27.7013 159.914 28.0747 160.372 28.352C160.831 28.6187 161.338 28.752 161.892 28.752ZM178.309 30.064C177.477 30.064 176.725 29.872 176.053 29.488C175.392 29.104 174.869 28.576 174.485 27.904C174.101 27.232 173.904 26.48 173.893 25.648V18.24C173.893 18.016 173.962 17.84 174.101 17.712C174.24 17.5733 174.416 17.504 174.629 17.504C174.853 17.504 175.029 17.5733 175.157 17.712C175.296 17.84 175.365 18.016 175.365 18.24V22.72C175.738 22.2507 176.197 21.8773 176.741 21.6C177.285 21.3227 177.893 21.184 178.565 21.184C179.354 21.184 180.064 21.3813 180.693 21.776C181.322 22.16 181.818 22.688 182.181 23.36C182.554 24.0213 182.741 24.7733 182.741 25.616C182.741 26.4587 182.544 27.216 182.149 27.888C181.765 28.56 181.237 29.0933 180.565 29.488C179.904 29.872 179.152 30.064 178.309 30.064ZM178.309 28.752C178.874 28.752 179.381 28.6187 179.829 28.352C180.288 28.0747 180.645 27.7013 180.901 27.232C181.168 26.752 181.301 26.2133 181.301 25.616C181.301 25.0187 181.168 24.4853 180.901 24.016C180.645 23.5467 180.288 23.1787 179.829 22.912C179.381 22.6347 178.874 22.496 178.309 22.496C177.744 22.496 177.232 22.6347 176.773 22.912C176.325 23.1787 175.973 23.5467 175.717 24.016C175.461 24.4853 175.333 25.0187 175.333 25.616C175.333 26.2133 175.461 26.752 175.717 27.232C175.973 27.7013 176.325 28.0747 176.773 28.352C177.232 28.6187 177.744 28.752 178.309 28.752ZM186.226 33.824C186.13 33.824 186.018 33.7973 185.89 33.744C185.463 33.552 185.346 33.248 185.538 32.832L190.53 21.664C190.722 21.2587 191.026 21.1413 191.442 21.312C191.879 21.4933 192.002 21.7973 191.81 22.224L186.802 33.376C186.674 33.6747 186.482 33.824 186.226 33.824ZM188.082 29.68C187.89 29.7653 187.714 29.776 187.554 29.712C187.394 29.648 187.266 29.5253 187.17 29.344L183.538 22.208C183.442 22.0267 183.426 21.8507 183.49 21.68C183.565 21.5093 183.698 21.3867 183.89 21.312C184.071 21.2267 184.242 21.216 184.402 21.28C184.573 21.3333 184.701 21.456 184.786 21.648L188.29 28.768C188.397 28.96 188.434 29.1413 188.402 29.312C188.37 29.472 188.263 29.5947 188.082 29.68Z"
    fill="white" />
  <g clip-path="url(#clip0_481_987)">
    <path
      d="M230.041 17.9838C228.946 17.9838 227.891 18.1213 227.461 18.2376C226.836 18.4135 226.68 18.6872 226.562 19.2544L224.08 30.7059C224.04 30.9399 224.002 31.1356 224.002 31.3313C224.002 31.8985 224.374 32.2687 224.979 32.2687C225.644 32.2687 225.918 31.839 226.054 31.1739L226.758 27.9107C227.245 27.9689 227.891 28.0284 228.81 28.0284C232.856 28.0284 235.376 25.8402 235.376 22.5374C235.376 19.6444 233.362 17.9838 230.041 17.9838ZM228.712 26.1522C228.086 26.1522 227.597 26.1324 227.149 26.0742L228.458 19.9961C228.868 19.938 229.475 19.8585 230.1 19.8585C232.25 19.8585 233.345 20.8753 233.345 22.5558C233.343 24.7057 231.779 26.1522 228.712 26.1522Z"
      fill="white" />
    <path
      d="M293.708 28.4964C293.376 28.4964 293.161 28.6921 292.751 29.1417C292.027 29.8848 291.578 30.2946 291.012 30.2946C290.504 30.2946 290.231 29.8848 290.231 29.2197C290.231 28.8481 290.309 28.3986 290.407 27.9107L291.13 24.51H293.3C293.983 24.51 294.394 24.1186 294.394 23.4152C294.394 23.0238 294.14 22.7317 293.555 22.7317H291.52L291.871 21.1491C291.911 20.9151 291.949 20.6995 291.949 20.5038C291.949 19.9564 291.578 19.565 290.972 19.565C290.327 19.565 290.035 19.9947 289.897 20.6598L289.448 22.7317H288.529C287.825 22.7317 287.416 23.1231 287.416 23.8265C287.416 24.2179 287.689 24.51 288.275 24.51H289.076L288.353 27.871C288.275 28.2426 288.177 28.8481 288.177 29.4735C288.177 31.0562 288.998 32.2091 290.757 32.2091C291.774 32.2091 292.671 31.7014 293.356 31.0945C294.021 30.5088 294.509 29.7855 294.509 29.3161C294.509 28.868 294.157 28.4964 293.708 28.4964Z"
      fill="white" />
    <path
      d="M248.761 19.1367C248.761 18.5694 248.37 18.1979 247.764 18.1979C247.119 18.1979 246.827 18.6276 246.69 19.2927L244.248 30.6463C244.189 30.8803 244.15 31.076 244.15 31.2717C244.15 31.8389 244.541 32.2091 245.127 32.2091C245.792 32.2091 246.084 31.7794 246.222 31.1143L248.664 19.7621C248.703 19.5267 248.761 19.3324 248.761 19.1367Z"
      fill="white" />
    <path
      d="M283.643 22.536C280.516 22.536 278.386 25.6431 278.386 28.5943C278.386 28.6496 278.388 28.7049 278.389 28.7588C277.899 29.5033 277.272 30.2748 276.842 30.2748C276.53 30.2748 276.412 29.9812 276.412 29.5317C276.412 28.9843 276.568 28.0653 276.744 27.2641L278.367 19.7593C278.406 19.5253 278.445 19.3296 278.445 19.1339C278.445 18.5666 278.073 18.1951 277.467 18.1951C276.802 18.1951 276.53 18.6248 276.392 19.2899L275.513 23.3543C275.044 22.8664 274.359 22.5332 273.324 22.5332C271.247 22.5332 269.159 24.1314 268.345 26.5834C267.448 28.9006 266.647 30.2719 266.015 30.2719C265.781 30.2719 265.643 30.0762 265.643 29.7444C265.643 28.7673 266.19 26.3834 266.424 25.2305C266.502 24.8008 266.542 24.6249 266.542 24.3711C266.542 23.5117 265.115 22.4949 263.259 22.4949C261.112 22.4949 259.168 23.8549 258.193 25.8743C256.746 28.4326 255.417 30.2719 254.759 30.2719C254.465 30.2719 254.367 29.9004 254.289 29.5487L253.803 26.8556L256.792 24.4136C257.066 24.1796 257.418 23.8463 257.418 23.4167C257.418 22.8891 257.066 22.5374 256.539 22.5374C256.147 22.5374 255.815 22.7714 255.483 23.0451L250.989 26.7578L252.494 19.7621C252.534 19.5281 252.592 19.3324 252.592 19.1367C252.592 18.5695 252.2 18.1979 251.595 18.1979C250.95 18.1979 250.658 18.6276 250.52 19.2927L248.078 30.6463C248.02 30.8803 247.98 31.076 247.98 31.2717C247.98 31.839 248.371 32.2091 248.957 32.2091C249.622 32.2091 249.914 31.7794 250.052 31.1143L250.365 29.6494L252.202 28.1646L252.651 30.4308C252.827 31.3299 253.297 32.2091 254.508 32.2091C255.713 32.2091 256.662 31.1086 257.612 29.621C257.9 31.1795 259.009 32.2091 260.548 32.2091C262.092 32.2091 263.147 31.2902 263.831 30.0592V30.0989C263.831 31.3696 264.476 32.2091 265.609 32.2091C266.634 32.2091 267.485 31.5908 268.245 30.2776C268.676 31.422 269.641 32.2091 270.982 32.2091C272.565 32.2091 273.698 31.2519 274.421 29.9231V30.0408C274.421 31.4476 275.125 32.2105 276.278 32.2105C277.296 32.2105 278.161 31.6192 278.9 30.6577C279.461 31.6192 280.468 32.2105 281.828 32.2105C284.955 32.2105 287.085 29.1034 287.085 26.1324C287.084 24.0406 285.813 22.536 283.643 22.536ZM264.161 26.5039C263.594 28.946 262.383 30.3343 261.014 30.3343C260.095 30.3343 259.588 29.6309 259.588 28.5758C259.588 26.5039 261.092 24.276 263.105 24.276C263.71 24.276 264.179 24.4519 264.589 24.7057L264.161 26.5039ZM275.045 25.4687C274.42 28.3418 272.993 30.3343 271.43 30.3343C270.571 30.3343 270.062 29.6692 270.062 28.5758C270.062 26.4855 271.508 24.3158 273.443 24.3158C274.186 24.3158 274.752 24.5696 275.163 24.9014L275.045 25.4687ZM282.061 30.3343C280.928 30.3343 280.458 29.5132 280.458 28.478C280.458 26.5819 281.767 24.4136 283.409 24.4136C284.543 24.4136 285.012 25.2347 285.012 26.2699C285.012 28.1844 283.703 30.3343 282.061 30.3343Z"
      fill="white" />
    <path
      d="M240.241 22.536C237.114 22.536 234.984 25.6432 234.984 28.5943C234.984 30.7045 236.255 32.2091 238.423 32.2091C241.55 32.2091 243.68 29.102 243.68 26.131C243.68 24.0407 242.41 22.536 240.241 22.536ZM238.659 30.3344C237.526 30.3344 237.056 29.5132 237.056 28.478C237.056 26.582 238.365 24.4136 240.007 24.4136C241.14 24.4136 241.61 25.2347 241.61 26.27C241.608 28.1845 240.299 30.3344 238.659 30.3344Z"
      fill="white" />
    <path
      d="M210.402 19.1949C212.394 19.1949 214.009 18.2558 214.009 17.0974C214.009 15.939 212.394 15 210.402 15C208.411 15 206.796 15.939 206.796 17.0974C206.796 18.2558 208.411 19.1949 210.402 19.1949Z"
      fill="#E6007A" />
    <path
      d="M210.402 34.9986C212.394 34.9986 214.009 34.0595 214.009 32.9011C214.009 31.7428 212.394 30.8037 210.402 30.8037C208.411 30.8037 206.796 31.7428 206.796 32.9011C206.796 34.0595 208.411 34.9986 210.402 34.9986Z"
      fill="#E6007A" />
    <path
      d="M205.377 22.0982C206.372 20.3734 206.366 18.5053 205.362 17.9257C204.358 17.3461 202.737 18.2745 201.741 19.9994C200.746 21.7242 200.752 23.5923 201.756 24.1719C202.76 24.7514 204.381 23.823 205.377 22.0982Z"
      fill="#E6007A" />
    <path
      d="M219.062 29.9991C220.057 28.2743 220.051 26.4065 219.048 25.8273C218.045 25.2482 216.425 26.1769 215.429 27.9017C214.433 29.6265 214.439 31.4943 215.442 32.0735C216.445 32.6527 218.066 31.724 219.062 29.9991Z"
      fill="#E6007A" />
    <path
      d="M205.363 32.073C206.366 31.4934 206.373 29.6253 205.377 27.9005C204.381 26.1757 202.76 25.2473 201.756 25.8269C200.753 26.4064 200.746 28.2745 201.742 29.9994C202.738 31.7242 204.359 32.6526 205.363 32.073Z"
      fill="#E6007A" />
    <path
      d="M219.049 24.1723C220.052 23.5931 220.058 21.7253 219.062 20.0005C218.067 18.2757 216.446 17.347 215.443 17.9261C214.44 18.5053 214.434 20.3731 215.43 22.0979C216.426 23.8228 218.046 24.7515 219.049 24.1723Z"
      fill="#E6007A" />
  </g>
  <defs>
    <clipPath id="clip0_481_987">
      <rect width="93.5092" height="20" fill="white" transform="translate(201 15)" />
    </clipPath>
  </defs>
</svg>