<svg width="32" height="32" viewBox="0 0 32 32" fill="none" xmlns="http://www.w3.org/2000/svg">
  <g id="icon/github">
    <path id="vector" fill-rule="evenodd" clip-rule="evenodd"
      d="M16 2.99561C8.63334 2.99561 2.66667 8.96227 2.66667 16.3289C2.66667 22.2289 6.48334 27.2123 11.7833 28.9789C12.45 29.0956 12.7 28.6956 12.7 28.3456C12.7 28.0289 12.6833 26.9789 12.6833 25.8623C9.33334 26.4789 8.46667 25.0456 8.20001 24.2956C8.05 23.9123 7.4 22.7289 6.83334 22.4123C6.36667 22.1623 5.70001 21.5456 6.81667 21.5289C7.86667 21.5123 8.61667 22.4956 8.86667 22.8956C10.0667 24.9123 11.9833 24.3456 12.75 23.9956C12.8667 23.1289 13.2167 22.5456 13.6 22.2123C10.6333 21.8789 7.53334 20.7289 7.53334 15.6289C7.53334 14.1789 8.05 12.9789 8.9 12.0456C8.76667 11.7123 8.3 10.3456 9.03334 8.51227C9.03334 8.51227 10.15 8.16227 12.7 9.87894C13.7667 9.57894 14.9 9.42894 16.0333 9.42894C17.1667 9.42894 18.3 9.57894 19.3667 9.87894C21.9167 8.14561 23.0333 8.51227 23.0333 8.51227C23.7667 10.3456 23.3 11.7123 23.1667 12.0456C24.0167 12.9789 24.5333 14.1623 24.5333 15.6289C24.5333 20.7456 21.4167 21.8789 18.45 22.2123C18.9333 22.6289 19.35 23.4289 19.35 24.6789C19.35 26.4623 19.3333 27.8956 19.3333 28.3456C19.3333 28.6956 19.5833 29.1123 20.25 28.9789C22.8969 28.0854 25.197 26.3842 26.8264 24.115C28.4558 21.8457 29.3326 19.1226 29.3333 16.3289C29.3333 8.96227 23.3667 2.99561 16 2.99561Z"
      fill="white" />
  </g>
</svg>
  