<svg width="32" height="32" viewBox="0 0 32 32" fill="none" xmlns="http://www.w3.org/2000/svg">
  <g id="icon/twitter">
    <path id="vector"
      d="M26.6033 10.5601C26.6195 10.7952 26.6195 11.0303 26.6195 11.2675C26.6195 18.4967 21.1161 26.8342 11.0529 26.8342V26.8298C8.08017 26.8342 5.1692 25.9827 2.66666 24.3771C3.09892 24.4291 3.53334 24.4551 3.96885 24.4562C6.43239 24.4584 8.82551 23.6318 10.7636 22.1097C8.4225 22.0653 6.36956 20.5388 5.65238 18.3104C6.47247 18.4685 7.31749 18.436 8.12242 18.2161C5.57004 17.7004 3.73376 15.4579 3.73376 12.8535C3.73376 12.8297 3.73376 12.807 3.73376 12.7842C4.49428 13.2078 5.34579 13.4429 6.2168 13.4689C3.81285 11.8623 3.07184 8.66422 4.52353 6.16385C7.30124 9.58182 11.3996 11.6597 15.799 11.8796C15.3581 9.97941 15.9605 7.98821 17.3818 6.65244C19.5853 4.58108 23.051 4.68725 25.1223 6.8897C26.3476 6.64811 27.522 6.19852 28.5967 5.56151C28.1882 6.82795 27.3335 7.90371 26.1916 8.58731C27.276 8.45947 28.3356 8.16913 29.3333 7.72604C28.5988 8.82673 27.6736 9.78549 26.6033 10.5601Z"
      fill="white" />
  </g>
</svg>
  